# xmcd
#
# Track frame offsets: 
#        150
#        16017
#        34102
#        53902
#        72667
#        88107
#        104895
#        127885
#        146470
#        167659
#        180592
#        196662
#        214285
#
# Disc length: 3088 seconds
#
# Revision: 6
# Processed by: cddbd v1.5.2PL0 Copyright (c) Steve Scherf et al.
# Submitted via: ExactAudioCopyFreeDBPlugin 1.0
#
DISCID=b70c0e0d
DTITLE=Сектор газа - Газовая атака (Gala Records GL 10178)
DYEAR=1996
DGENRE=Punk Rock
TTITLE0=Аванс
TTITLE1=Свидание
TTITLE2=Вылазка
TTITLE3=30 лет
TTITLE4=Life
TTITLE5=Туман
TTITLE6=Твой звонок
TTITLE7=ГАИ (водительская-подхалимская)
TTITLE8=Мак
TTITLE9=Чунга-чанга
TTITLE10=Хата
TTITLE11=Рассказ, услышанный в автокомбинате
TTITLE12=Опарыш
EXTD=
EXTT0=
EXTT1=
EXTT2=
EXTT3=
EXTT4=
EXTT5=
EXTT6=
EXTT7=
EXTT8=
EXTT9=
EXTT10=
EXTT11=
EXTT12=
PLAYORDER=
